<svg width="150" height="224.99999999999997" xmlns="http://www.w3.org/2000/svg" clip-rule="evenodd" version="1.1" xml:space="preserve">
 <g>
  <title>Layer 1</title>
  <g stroke="null" id="Layer 1">
   <path stroke="#4ca585" id="svg_1" stroke-linejoin="round" fill="none" d="m74.27765,6.92761c-11.37597,-0.01713 -33.56551,5.10433 -46.81316,19.49481c-6.74143,7.32292 -18.12269,23.06967 -19.26758,59.61369c-0.51906,16.56921 5.04524,60.62533 10.24006,76.46775c3.6313,11.07468 27.48215,43.93349 44.4906,53.68251c4.80791,2.75546 11.29668,2.68251 12.42255,2.68251c1.18876,-0.08457 7.33026,0.07294 12.13765,-2.68251c17.00846,-9.74902 40.40208,-42.76851 44.4906,-53.68251c4.40038,-11.74491 10.75965,-59.89854 10.24006,-76.46775c-1.14489,-36.54402 -12.52615,-52.29077 -19.26758,-59.61369c-13.24765,-14.39048 -35.30663,-19.52933 -46.77827,-19.49481c-0.74688,0.00222 -1.89494,0 -1.89494,0z" stroke-width="7.65"/>
  </g>
 </g>
</svg>
